<svg width="31" height="26" viewBox="0 0 31 26" fill="none" xmlns="http://www.w3.org/2000/svg">
<path d="M14.82 8.21053L19.1579 12.5347V12.3158C19.1579 11.227 18.7254 10.1828 17.9555 9.41293C17.1856 8.64304 16.1414 8.21053 15.0526 8.21053H14.82ZM8.93579 9.30526L11.0568 11.4263C10.9884 11.7137 10.9474 12.0011 10.9474 12.3158C10.9474 13.4046 11.3799 14.4488 12.1498 15.2186C12.9197 15.9885 13.9638 16.4211 15.0526 16.4211C15.3537 16.4211 15.6547 16.38 15.9421 16.3116L18.0632 18.4326C17.1463 18.8842 16.1337 19.1579 15.0526 19.1579C13.238 19.1579 11.4977 18.437 10.2145 17.1539C8.93139 15.8707 8.21053 14.1304 8.21053 12.3158C8.21053 11.2347 8.48421 10.2221 8.93579 9.30526ZM1.36842 1.73789L4.48842 4.8579L5.10421 5.47368C2.84632 7.25263 1.06737 9.57895 0 12.3158C2.36737 18.3232 8.21053 22.5789 15.0526 22.5789C17.1737 22.5789 19.1989 22.1684 21.0463 21.4295L21.6347 22.0042L25.6305 26L27.3684 24.2621L3.10632 0M15.0526 5.47368C16.8673 5.47368 18.6076 6.19455 19.8907 7.47769C21.1739 8.76083 21.8947 10.5012 21.8947 12.3158C21.8947 13.1916 21.7168 14.04 21.4021 14.8063L25.4116 18.8158C27.4642 17.1053 29.1063 14.8611 30.1053 12.3158C27.7379 6.30842 21.8947 2.05263 15.0526 2.05263C13.1368 2.05263 11.3032 2.39474 9.57895 3.01053L12.5484 5.95263C13.3284 5.65158 14.1632 5.47368 15.0526 5.47368Z" fill="#262626"/>
</svg>
