<svg width="299" height="34" viewBox="0 0 299 34" fill="none" xmlns="http://www.w3.org/2000/svg">
<path d="M14.82 9.21053L19.1579 13.5347V13.3158C19.1579 12.227 18.7254 11.1828 17.9555 10.4129C17.1856 9.64304 16.1414 9.21053 15.0526 9.21053H14.82ZM8.93579 10.3053L11.0568 12.4263C10.9884 12.7137 10.9474 13.0011 10.9474 13.3158C10.9474 14.4046 11.3799 15.4488 12.1498 16.2186C12.9197 16.9885 13.9638 17.4211 15.0526 17.4211C15.3537 17.4211 15.6547 17.38 15.9421 17.3116L18.0632 19.4326C17.1463 19.8842 16.1337 20.1579 15.0526 20.1579C13.238 20.1579 11.4977 19.437 10.2145 18.1539C8.93139 16.8707 8.21053 15.1304 8.21053 13.3158C8.21053 12.2347 8.48421 11.2221 8.93579 10.3053ZM1.36842 2.73789L4.48842 5.8579L5.10421 6.47368C2.84632 8.25263 1.06737 10.5789 0 13.3158C2.36737 19.3232 8.21053 23.5789 15.0526 23.5789C17.1737 23.5789 19.1989 23.1684 21.0463 22.4295L21.6347 23.0042L25.6305 27L27.3684 25.2621L3.10632 1M15.0526 6.47368C16.8673 6.47368 18.6076 7.19455 19.8907 8.47769C21.1739 9.76083 21.8947 11.5012 21.8947 13.3158C21.8947 14.1916 21.7168 15.04 21.4021 15.8063L25.4116 19.8158C27.4642 18.1053 29.1063 15.8611 30.1053 13.3158C27.7379 7.30842 21.8947 3.05263 15.0526 3.05263C13.1368 3.05263 11.3032 3.39474 9.57895 4.01053L12.5484 6.95263C13.3284 6.65158 14.1632 6.47368 15.0526 6.47368Z" fill="white"/>
<path d="M49.4167 27.3611C47.6593 27.3611 46.1306 27.0602 44.8306 26.4583C43.5547 25.8565 42.5677 25.0019 41.8695 23.8945C41.1714 22.7871 40.8223 21.4871 40.8223 19.9945H44.7223C44.7223 21.1741 45.1436 22.125 45.9862 22.8472C46.8528 23.5695 48.0084 23.9306 49.4528 23.9306C50.8251 23.9306 51.9204 23.5695 52.7389 22.8472C53.5575 22.125 53.9667 21.1741 53.9667 19.9945C53.9667 19.0315 53.7019 18.201 53.1723 17.5028C52.6426 16.7806 51.9204 16.2871 51.0056 16.0223L47.5028 14.975C45.5769 14.4213 44.0843 13.4945 43.0251 12.1945C41.9658 10.8704 41.4362 9.30561 41.4362 7.50007C41.4362 5.30933 42.1584 3.56397 43.6029 2.26397C45.0473 0.939902 46.9973 0.277868 49.4528 0.277868C51.8843 0.277868 53.8223 0.927865 55.2667 2.22786C56.7352 3.50378 57.4695 5.23711 57.4695 7.42784H53.5695C53.5695 6.29636 53.1963 5.39359 52.4501 4.71952C51.7038 4.04545 50.6926 3.70841 49.4167 3.70841C48.1408 3.70841 47.1297 4.04545 46.3834 4.71952C45.6371 5.36952 45.264 6.27229 45.264 7.42784C45.264 8.31858 45.5288 9.08895 46.0584 9.73895C46.588 10.3889 47.3223 10.8463 48.2612 11.1112L51.8723 12.1945C53.75 12.7482 55.2065 13.6991 56.2417 15.0473C57.301 16.3954 57.8306 18.0204 57.8306 19.9222C57.8306 21.4148 57.4815 22.7269 56.7834 23.8583C56.0852 24.9657 55.0982 25.8324 53.8223 26.4583C52.5704 27.0602 51.1019 27.3611 49.4167 27.3611ZM73.1275 27C71.3701 27 69.9738 26.4944 68.9387 25.4833C67.9035 24.4722 67.3859 23.1 67.3859 21.3667V10.6778H61.897V7.13896H67.3859V1.54175H71.2859V7.13896H79.0859V10.6778H71.2859V21.3306C71.2859 21.9565 71.4664 22.4741 71.8275 22.8833C72.1887 23.2685 72.6822 23.4611 73.3081 23.4611H78.7247V27H73.1275ZM92.6134 27.3611C91.0004 27.3611 89.5921 27.0481 88.3884 26.4222C87.1847 25.7722 86.2458 24.8695 85.5717 23.7139C84.9217 22.5583 84.5967 21.2102 84.5967 19.6695V14.4695C84.5967 12.9288 84.9217 11.5806 85.5717 10.4251C86.2458 9.2695 87.1847 8.37877 88.3884 7.75284C89.5921 7.10284 91.0004 6.77785 92.6134 6.77785C94.2504 6.77785 95.6708 7.10284 96.8745 7.75284C98.0782 8.37877 99.005 9.2695 99.655 10.4251C100.329 11.5806 100.666 12.9288 100.666 14.4695V18.0084H88.3523V19.6695C88.3523 22.6787 89.7847 24.1833 92.6495 24.1833C94.9847 24.1833 96.3328 23.4009 96.6939 21.8361H100.558C100.269 23.5213 99.4022 24.8695 97.9578 25.8806C96.5134 26.8676 94.7319 27.3611 92.6134 27.3611ZM88.3523 14.4695V15.3723L96.8745 15.3362V14.4334C96.8745 12.9649 96.5134 11.8454 95.7911 11.0751C95.0689 10.2806 94.0097 9.88339 92.6134 9.88339C91.2171 9.88339 90.1578 10.2806 89.4356 11.0751C88.7134 11.8695 88.3523 13.001 88.3523 14.4695ZM112.28 27.3611C110.209 27.3611 108.572 26.8315 107.369 25.7722C106.189 24.6889 105.599 23.2204 105.599 21.3667C105.599 19.4889 106.237 18.0204 107.513 16.9611C108.789 15.8778 110.546 15.3362 112.785 15.3362H118.238V13.4945C118.238 12.4112 117.889 11.5806 117.191 11.0028C116.517 10.401 115.578 10.1001 114.374 10.1001C113.291 10.1001 112.376 10.3408 111.63 10.8223C110.908 11.2797 110.486 11.8815 110.366 12.6278H106.574C106.671 11.4723 107.056 10.4612 107.73 9.5945C108.428 8.70376 109.355 8.01766 110.51 7.53618C111.666 7.03062 112.978 6.77785 114.446 6.77785C116.806 6.77785 118.671 7.3797 120.044 8.58339C121.44 9.76302 122.138 11.376 122.138 13.4223V27H118.346V23.425H118.274C118.082 24.6528 117.444 25.6157 116.36 26.3139C115.301 27.012 113.941 27.3611 112.28 27.3611ZM113.435 24.4C114.832 24.4 115.975 24.0509 116.866 23.3528C117.781 22.6306 118.238 21.7158 118.238 20.6084V18.0084H112.894C111.834 18.0084 111.004 18.2852 110.402 18.8389C109.8 19.3926 109.499 20.1509 109.499 21.1139C109.499 22.125 109.848 22.9315 110.546 23.5333C111.245 24.1111 112.208 24.4 113.435 24.4ZM138.988 27C137.11 27 135.605 26.4583 134.474 25.375C133.366 24.2676 132.813 22.7991 132.813 20.9695V4.17785H126.132V0.638978H136.713V20.8972C136.713 21.6917 136.929 22.3176 137.363 22.775C137.796 23.2324 138.386 23.4611 139.132 23.4611H145.127V27H138.988ZM159.737 27C157.98 27 156.584 26.4944 155.549 25.4833C154.513 24.4722 153.996 23.1 153.996 21.3667V10.6778H148.507V7.13896H153.996V1.54175H157.896V7.13896H165.696V10.6778H157.896V21.3306C157.896 21.9565 158.076 22.4741 158.437 22.8833C158.799 23.2685 159.292 23.4611 159.918 23.4611H165.335V27H159.737ZM171.423 27V0.638978H175.323V7.13896L175.287 10.9306H175.323C175.516 9.63061 176.07 8.61951 176.984 7.89729C177.899 7.15099 179.103 6.77785 180.596 6.77785C182.57 6.77785 184.146 7.41581 185.326 8.69173C186.506 9.94358 187.096 11.6408 187.096 13.7834V27H183.196V14.2167C183.196 12.9167 182.846 11.9056 182.148 11.1834C181.45 10.4612 180.499 10.1001 179.296 10.1001C178.068 10.1001 177.093 10.4852 176.371 11.2556C175.672 12.026 175.323 13.0973 175.323 14.4695V27H171.423ZM200.984 27.3611C199.227 27.3611 197.698 27.0602 196.398 26.4583C195.122 25.8565 194.135 25.0019 193.437 23.8945C192.739 22.7871 192.39 21.4871 192.39 19.9945H196.29C196.29 21.1741 196.711 22.125 197.554 22.8472C198.42 23.5695 199.576 23.9306 201.02 23.9306C202.392 23.9306 203.488 23.5695 204.306 22.8472C205.125 22.125 205.534 21.1741 205.534 19.9945C205.534 19.0315 205.269 18.201 204.74 17.5028C204.21 16.7806 203.488 16.2871 202.573 16.0223L199.07 14.975C197.144 14.4213 195.652 13.4945 194.592 12.1945C193.533 10.8704 193.004 9.30561 193.004 7.50007C193.004 5.30933 193.726 3.56397 195.17 2.26397C196.615 0.939902 198.565 0.277868 201.02 0.277868C203.452 0.277868 205.39 0.927865 206.834 2.22786C208.303 3.50378 209.037 5.23711 209.037 7.42784H205.137C205.137 6.29636 204.764 5.39359 204.017 4.71952C203.271 4.04545 202.26 3.70841 200.984 3.70841C199.708 3.70841 198.697 4.04545 197.951 4.71952C197.205 5.36952 196.831 6.27229 196.831 7.42784C196.831 8.31858 197.096 9.08895 197.626 9.73895C198.155 10.3889 198.89 10.8463 199.829 11.1112L203.44 12.1945C205.317 12.7482 206.774 13.6991 207.809 15.0473C208.868 16.3954 209.398 18.0204 209.398 19.9222C209.398 21.4148 209.049 22.7269 208.351 23.8583C207.653 24.9657 206.666 25.8324 205.39 26.4583C204.138 27.0602 202.669 27.3611 200.984 27.3611ZM226.428 33.5V27.8306L226.537 23.3167H226.428C226.163 24.5926 225.55 25.5917 224.587 26.3139C223.648 27.012 222.468 27.3611 221.048 27.3611C219.074 27.3611 217.497 26.687 216.317 25.3389C215.162 23.9908 214.584 22.1611 214.584 19.85V14.2528C214.584 11.9658 215.162 10.1482 216.317 8.80006C217.497 7.45192 219.074 6.77785 221.048 6.77785C222.468 6.77785 223.648 7.13896 224.587 7.86117C225.55 8.55932 226.163 9.54635 226.428 10.8223H226.464V7.13896H230.328V33.5H226.428ZM222.42 23.9667C223.672 23.9667 224.647 23.5935 225.345 22.8472C226.067 22.0769 226.428 20.9935 226.428 19.5972V14.5056C226.428 13.1334 226.067 12.0741 225.345 11.3278C224.647 10.5575 223.672 10.1723 222.42 10.1723C221.168 10.1723 220.193 10.5454 219.495 11.2917C218.821 12.0139 218.484 13.0732 218.484 14.4695V19.6695C218.484 21.0658 218.821 22.1371 219.495 22.8833C220.193 23.6056 221.168 23.9667 222.42 23.9667ZM244.145 27.3611C241.737 27.3611 239.823 26.675 238.403 25.3028C237.007 23.9065 236.309 22.0167 236.309 19.6334V7.13896H240.209V19.5972C240.209 20.9935 240.558 22.0769 241.256 22.8472C241.954 23.5935 242.917 23.9667 244.145 23.9667C245.397 23.9667 246.372 23.5935 247.07 22.8472C247.792 22.0769 248.153 20.9935 248.153 19.5972V7.13896H252.053V19.6334C252.053 22.0167 251.331 23.9065 249.886 25.3028C248.466 26.675 246.552 27.3611 244.145 27.3611ZM263.847 27.3611C261.777 27.3611 260.14 26.8315 258.936 25.7722C257.756 24.6889 257.167 23.2204 257.167 21.3667C257.167 19.4889 257.805 18.0204 259.081 16.9611C260.356 15.8778 262.114 15.3362 264.353 15.3362H269.805V13.4945C269.805 12.4112 269.456 11.5806 268.758 11.0028C268.084 10.401 267.145 10.1001 265.942 10.1001C264.858 10.1001 263.943 10.3408 263.197 10.8223C262.475 11.2797 262.054 11.8815 261.933 12.6278H258.142C258.238 11.4723 258.623 10.4612 259.297 9.5945C259.995 8.70376 260.922 8.01766 262.078 7.53618C263.233 7.03062 264.545 6.77785 266.014 6.77785C268.373 6.77785 270.239 7.3797 271.611 8.58339C273.007 9.76302 273.705 11.376 273.705 13.4223V27H269.914V23.425H269.842C269.649 24.6528 269.011 25.6157 267.928 26.3139C266.868 27.012 265.508 27.3611 263.847 27.3611ZM265.003 24.4C266.399 24.4 267.543 24.0509 268.433 23.3528C269.348 22.6306 269.805 21.7158 269.805 20.6084V18.0084H264.461C263.402 18.0084 262.571 18.2852 261.969 18.8389C261.368 19.3926 261.067 20.1509 261.067 21.1139C261.067 22.125 261.416 22.9315 262.114 23.5333C262.812 24.1111 263.775 24.4 265.003 24.4ZM286.005 27.3611C284.031 27.3611 282.442 26.687 281.239 25.3389C280.059 23.9908 279.469 22.1732 279.469 19.8861V14.2889C279.469 11.9778 280.059 10.1482 281.239 8.80006C282.442 7.45192 284.031 6.77785 286.005 6.77785C287.426 6.77785 288.605 7.13896 289.544 7.86117C290.507 8.55932 291.121 9.54635 291.386 10.8223H291.494L291.386 6.3084V0.638978H295.286V27H291.422V23.3167H291.386C291.121 24.5926 290.507 25.5917 289.544 26.3139C288.605 27.012 287.426 27.3611 286.005 27.3611ZM287.377 23.9667C288.629 23.9667 289.604 23.5935 290.302 22.8472C291.025 22.0769 291.386 20.9935 291.386 19.5972V14.5056C291.386 13.1334 291.025 12.0741 290.302 11.3278C289.604 10.5575 288.629 10.1723 287.377 10.1723C286.126 10.1723 285.139 10.5454 284.416 11.2917C283.718 12.0139 283.369 13.0732 283.369 14.4695V19.6695C283.369 21.0658 283.718 22.1371 284.416 22.8833C285.139 23.6056 286.126 23.9667 287.377 23.9667Z" fill="white"/>
</svg>
